PathFileType	4	(X/Y/Z)	 s01_static.trc
DataRate	CameraRate	NumFrames	NumMarkers	Units	OrigDataRate	OrigDataStartFrame	OrigNumFrames
100	100	6	52	m	100	126	200
Frame#	Time	s2			lmt5			lcal			ltoe			lmmal			llmal			lmt1			lsh1			lsh2			lsh3			lsh4			llfc			lmfc			lth1			lth2			lth3			lth4			lgt			lic			lasi			lpsi			rpsi			ric			rasi			rgt			rth1			rth2			rth3			rth4			rlfc			rsh1			rsh2			rsh4			rlmal			rmmal			rcal			rmt5			rmt1			rtoe			jug			c7			lacr			lua			llel			lfa			ldr			racr			rua			rlel			rfa			rdr			rmfc			
		X1	Y1	Z1	X2	Y2	Z2	X3	Y3	Z3	X4	Y4	Z4	X5	Y5	Z5	X6	Y6	Z6	X7	Y7	Z7	X8	Y8	Z8	X9	Y9	Z9	X10	Y10	Z10	X11	Y11	Z11	X12	Y12	Z12	X13	Y13	Z13	X14	Y14	Z14	X15	Y15	Z15	X16	Y16	Z16	X17	Y17	Z17	X18	Y18	Z18	X19	Y19	Z19	X20	Y20	Z20	X21	Y21	Z21	X22	Y22	Z22	X23	Y23	Z23	X24	Y24	Z24	X25	Y25	Z25	X26	Y26	Z26	X27	Y27	Z27	X28	Y28	Z28	X29	Y29	Z29	X30	Y30	Z30	X31	Y31	Z31	X32	Y32	Z32	X33	Y33	Z33	X34	Y34	Z34	X35	Y35	Z35	X36	Y36	Z36	X37	Y37	Z37	X38	Y38	Z38	X39	Y39	Z39	X40	Y40	Z40	X41	Y41	Z41	X42	Y42	Z42	X43	Y43	Z43	X44	Y44	Z44	X45	Y45	Z45	X46	Y46	Z46	X47	Y47	Z47	X48	Y48	Z48	X49	Y49	Z49	X50	Y50	Z50	X51	Y51	Z51	X52	Y52	Z52	
126	1.2600	0.096909	1.003915	-0.225595	0.281850	0.019639	-0.428221	0.092186	0.037540	-0.346265	0.389912	0.049934	-0.364330	0.171126	0.081759	-0.301400	0.155134	0.063492	-0.394685	0.307441	0.019510	-0.311763	0.170028	0.383821	-0.429011	0.181598	0.298346	-0.415550	0.147197	0.212470	-0.408033	0.211651	0.296743	-0.389241	0.204142	0.501953	-0.404518	0.175959	0.486408	-0.292399	0.209454	0.809372	-0.431373	0.226926	0.723176	-0.427681	0.201395	0.636674	-0.420291	0.262871	0.722222	-0.414593	0.203308	0.924077	-0.419196	0.199683	1.018186	-0.398585	0.290108	1.026501	-0.347900	0.102430	1.031581	-0.275281	0.108853	1.037396	-0.172047	0.215992	1.030877	-0.062566	0.295232	1.025894	-0.117333	0.206291	0.914833	-0.043747	0.226752	0.789856	-0.029132	0.241020	0.700990	-0.035851	0.212721	0.618145	-0.040546	0.274272	0.698536	-0.054298	0.199169	0.495952	-0.049097	0.178004	0.378608	-0.031975	0.190724	0.291227	-0.051285	0.216562	0.293854	-0.081994	0.157828	0.071846	-0.079848	0.177958	0.082684	-0.172078	0.098605	0.035710	-0.133102	0.275684	0.019743	-0.036532	0.317084	0.020948	-0.152213	0.392152	0.051274	-0.088105	0.294846	1.459915	-0.241619	0.165747	1.559884	-0.233021	0.173163	1.530274	-0.405189	0.136489	1.358516	-0.485022	0.101799	1.209433	-0.524709	0.160400	1.109019	-0.600343	0.190993	0.977620	-0.641303	0.199889	1.532839	-0.055239	0.146735	1.360066	0.026617	0.117173	1.207382	0.062509	0.178656	1.103175	0.136726	0.209647	0.976052	0.166729	0.181359	0.471078	-0.159209	
127	1.2700	0.096996	1.003912	-0.225568	0.281832	0.019628	-0.428204	0.092182	0.037525	-0.346296	0.389926	0.049946	-0.364340	0.171161	0.081789	-0.301410	0.155111	0.063535	-0.394697	0.307445	0.019529	-0.311776	0.170060	0.383820	-0.429010	0.181627	0.298348	-0.415544	0.147211	0.212470	-0.408032	0.211689	0.296753	-0.389213	0.204176	0.501901	-0.404510	0.175985	0.486411	-0.292381	0.209482	0.809399	-0.431399	0.226980	0.723098	-0.427638	0.201456	0.636673	-0.420263	0.262925	0.722262	-0.414571	0.203383	0.924052	-0.419206	0.199736	1.018198	-0.398587	0.290160	1.026495	-0.347908	0.102463	1.031575	-0.275239	0.108910	1.037413	-0.172035	0.216039	1.030867	-0.062550	0.295292	1.025874	-0.117326	0.206370	0.914853	-0.043716	0.226788	0.789842	-0.029133	0.241089	0.700959	-0.035847	0.212784	0.618137	-0.040518	0.274289	0.698528	-0.054295	0.199216	0.495936	-0.049113	0.178038	0.378610	-0.031977	0.190752	0.291211	-0.051271	0.216593	0.293856	-0.081992	0.157832	0.071854	-0.079840	0.177942	0.082680	-0.172050	0.098618	0.035702	-0.133100	0.275673	0.019743	-0.036517	0.317060	0.020937	-0.152192	0.392151	0.051286	-0.088104	0.294904	1.459947	-0.241621	0.165766	1.559862	-0.232984	0.173194	1.530279	-0.405215	0.136512	1.358506	-0.485031	0.101821	1.209445	-0.524721	0.160400	1.109032	-0.600391	0.190976	0.977611	-0.641375	0.199920	1.532844	-0.055243	0.146811	1.360075	0.026624	0.117222	1.207357	0.062467	0.178733	1.103137	0.136654	0.209718	0.976014	0.166619	0.181408	0.471040	-0.159203	
128	1.2800	0.097043	1.003921	-0.225548	0.281850	0.019658	-0.428198	0.092238	0.037441	-0.346363	0.389925	0.049952	-0.364308	0.171127	0.081760	-0.301405	0.155113	0.063529	-0.394705	0.307444	0.019522	-0.311759	0.170088	0.383829	-0.429005	0.181640	0.298350	-0.415557	0.147236	0.212452	-0.408024	0.211706	0.296745	-0.389192	0.204228	0.501884	-0.404474	0.175988	0.486402	-0.292401	0.209558	0.809370	-0.431399	0.227039	0.723081	-0.427666	0.201492	0.636662	-0.420319	0.262982	0.722212	-0.414553	0.203456	0.924056	-0.419198	0.199817	1.018186	-0.398554	0.290209	1.026526	-0.347905	0.102533	1.031575	-0.275237	0.109005	1.037391	-0.172044	0.216117	1.030859	-0.062567	0.295338	1.025889	-0.117316	0.206404	0.914848	-0.043718	0.226830	0.789827	-0.029112	0.241115	0.700957	-0.035848	0.212841	0.618122	-0.040540	0.274349	0.698546	-0.054283	0.199224	0.495939	-0.049108	0.178071	0.378615	-0.031971	0.190766	0.291223	-0.051261	0.216618	0.293831	-0.082001	0.157849	0.071841	-0.079864	0.177933	0.082704	-0.172089	0.098621	0.035692	-0.133150	0.275686	0.019734	-0.036557	0.317068	0.020947	-0.152197	0.392147	0.051286	-0.088105	0.294925	1.459909	-0.241664	0.165813	1.559884	-0.233024	0.173216	1.530276	-0.405189	0.136536	1.358521	-0.485056	0.101856	1.209447	-0.524748	0.160409	1.109052	-0.600455	0.190977	0.977636	-0.641431	0.199962	1.532860	-0.055232	0.146875	1.360076	0.026629	0.117277	1.207354	0.062442	0.178821	1.103122	0.136610	0.209803	0.975953	0.166510	0.181434	0.471092	-0.159230	
129	1.2900	0.097108	1.003932	-0.225533	0.281858	0.019578	-0.428204	0.092222	0.037479	-0.346367	0.389927	0.049949	-0.364309	0.171151	0.081752	-0.301436	0.155110	0.063518	-0.394690	0.307451	0.019503	-0.311743	0.170110	0.383847	-0.428971	0.181658	0.298341	-0.415525	0.147226	0.212491	-0.407999	0.211705	0.296748	-0.389203	0.204267	0.501874	-0.404437	0.176068	0.486385	-0.292383	0.209618	0.809360	-0.431374	0.227085	0.723087	-0.427632	0.201558	0.636663	-0.420295	0.263046	0.722203	-0.414531	0.203523	0.924051	-0.419173	0.199853	1.018166	-0.398529	0.290272	1.026503	-0.347868	0.102551	1.031667	-0.275116	0.108953	1.037576	-0.171853	0.216180	1.030868	-0.062514	0.295386	1.025893	-0.117270	0.206460	0.914849	-0.043680	0.226898	0.789831	-0.029099	0.241166	0.700978	-0.035819	0.212884	0.618107	-0.040539	0.274407	0.698537	-0.054302	0.199276	0.495935	-0.049082	0.178082	0.378607	-0.031971	0.190806	0.291234	-0.051252	0.216629	0.293830	-0.081976	0.157822	0.071842	-0.079851	0.177981	0.082701	-0.172053	0.098632	0.035727	-0.133138	0.275693	0.019726	-0.036542	0.317053	0.020934	-0.152202	0.392148	0.051282	-0.088097	0.294975	1.459913	-0.241683	0.165849	1.559884	-0.233015	0.173254	1.530265	-0.405198	0.136573	1.358497	-0.485056	0.101832	1.209439	-0.524786	0.160389	1.109037	-0.600475	0.190949	0.977637	-0.641479	0.200049	1.532866	-0.055233	0.146959	1.360076	0.026614	0.117343	1.207359	0.062431	0.178903	1.103107	0.136524	0.209870	0.975914	0.166417	0.181467	0.471050	-0.159181	
130	1.3000	0.097163	1.003928	-0.225501	0.281824	0.019658	-0.428187	0.092230	0.037470	-0.346342	0.389915	0.049965	-0.364304	0.171132	0.081770	-0.301395	0.155112	0.063511	-0.394655	0.307421	0.019522	-0.311746	0.170122	0.383863	-0.428960	0.181682	0.298367	-0.415525	0.147225	0.212525	-0.407999	0.211745	0.296753	-0.389188	0.204283	0.501895	-0.404448	0.176098	0.486355	-0.292366	0.209660	0.809367	-0.431354	0.227125	0.723084	-0.427634	0.201561	0.636680	-0.420255	0.263098	0.722204	-0.414553	0.203596	0.924078	-0.419162	0.199952	1.018157	-0.398530	0.290298	1.026382	-0.347711	0.102658	1.031569	-0.275203	0.109111	1.037410	-0.171990	0.216241	1.030891	-0.062503	0.295431	1.025883	-0.117264	0.206511	0.914853	-0.043646	0.226939	0.789850	-0.029081	0.241198	0.700940	-0.035806	0.212908	0.618116	-0.040522	0.274426	0.698521	-0.054273	0.199292	0.495928	-0.049093	0.178110	0.378615	-0.031969	0.190788	0.291229	-0.051272	0.216638	0.293819	-0.081972	0.157827	0.071871	-0.079844	0.177988	0.082708	-0.172071	0.098612	0.035732	-0.133101	0.275688	0.019736	-0.036539	0.317084	0.020955	-0.152201	0.392143	0.051293	-0.088107	0.295031	1.459931	-0.241706	0.165892	1.559949	-0.233055	0.173264	1.530248	-0.405208	0.136581	1.358495	-0.485062	0.101872	1.209426	-0.524807	0.160398	1.109049	-0.600514	0.190964	0.977625	-0.641523	0.200086	1.532856	-0.055241	0.147041	1.360073	0.026633	0.117415	1.207318	0.062378	0.178963	1.103054	0.136453	0.209950	0.975867	0.166325	0.181483	0.471049	-0.159171	
131	1.3100	0.097218	1.003973	-0.225477	0.281851	0.019589	-0.428197	0.092220	0.037428	-0.346320	0.389926	0.049955	-0.364319	0.171135	0.081781	-0.301377	0.155084	0.063510	-0.394668	0.307445	0.019484	-0.311771	0.170152	0.383854	-0.428962	0.181675	0.298319	-0.415504	0.147255	0.212480	-0.407969	0.211743	0.296737	-0.389199	0.204316	0.501898	-0.404424	0.176121	0.486396	-0.292370	0.209682	0.809350	-0.431354	0.227201	0.723046	-0.427617	0.201605	0.636659	-0.420266	0.263152	0.722184	-0.414522	0.203642	0.924056	-0.419128	0.200012	1.018170	-0.398505	0.290358	1.026368	-0.347695	0.102706	1.031606	-0.275159	0.109197	1.037420	-0.171959	0.216319	1.030859	-0.062479	0.295486	1.025875	-0.117270	0.206558	0.914832	-0.043606	0.226942	0.789834	-0.029084	0.241233	0.700918	-0.035798	0.212950	0.618100	-0.040505	0.274457	0.698543	-0.054263	0.199309	0.495913	-0.049077	0.178100	0.378602	-0.031941	0.190792	0.291211	-0.051260	0.216639	0.293844	-0.081978	0.157829	0.071846	-0.079847	0.177958	0.082743	-0.172070	0.098618	0.035732	-0.133128	0.275692	0.019721	-0.036539	0.317051	0.020956	-0.152212	0.392159	0.051274	-0.088117	0.295068	1.459954	-0.241690	0.165957	1.559948	-0.233060	0.173296	1.530236	-0.405214	0.136595	1.358476	-0.485076	0.101898	1.209435	-0.524801	0.160366	1.109036	-0.600552	0.190949	0.977592	-0.641552	0.200150	1.532851	-0.055242	0.147106	1.360047	0.026586	0.117463	1.207302	0.062346	0.179019	1.103036	0.136403	0.210015	0.975832	0.166231	0.181512	0.471047	-0.159158	
